<svg viewBox="0 0 486.59 251.89" xmlns="http://www.w3.org/2000/svg"><defs><style>.cls-1{fill:#155f97;}.cls-2{fill:#1d1d1b;}.cls-3{fill:silver;}</style></defs><g data-name="Layer 2" id="Layer_2"><g data-name="Layer 1" id="Layer_1-2"><path d="M60.27,98.72l-46-12.79c-10.39,14.7-15.5,30.32-14,46.13a61.26,61.26,0,0,0,9.85,27.51L53.66,156a64.42,64.42,0,0,1-3.84-20.47C49.57,122.72,53.29,110.34,60.27,98.72Z" class="cls-1"></path><path d="M340.78,28.81c29.48,7.29,55.12,18.38,74.77,32.24-12.94-18.32-35.81-33.39-65.24-44Z" class="cls-1"></path><path d="M65.11,91.45a108.35,108.35,0,0,1,11.4-13.09c2-2,4-3.77,4-3.77a171.63,171.63,0,0,1,36.35-24.4L91.19,29.62c-18.92,8.2-35.61,17.74-49.31,28.29-2.11,1.59-5.54,4.45-5.54,4.45A134.59,134.59,0,0,0,19.75,78.85Z" class="cls-1"></path><path d="M199,24.08a362,362,0,0,1,52.37-4.83c5.06-.1,10-.05,15,.07L270.66,1a402.63,402.63,0,0,0-67.42.83c-4.14.39-8.25.87-12.33,1.38Z" class="cls-1"></path><path d="M125.11,46.16a277.81,277.81,0,0,1,54.47-18.27c6-1.44,7-1.53,7-1.53,1.36-.28,2.75-.54,4.12-.79L182.47,4.43c-1.88.27-3.76.52-5.62.81-2.84.45-8.46,1.45-8.46,1.45A360.73,360.73,0,0,0,99.92,26Z" class="cls-1"></path><path d="M57.19,164.24l-.1-.17-41.23,3.37c.66.78,1.12,1.28,1.12,1.28,20,23,56.28,40.2,101.49,48.71C89.46,203.67,67.84,185.29,57.19,164.24Z" class="cls-1"></path><path d="M274.88,19.58c7.68.33,15.26.86,22.67,1.65,1.8.19,6.51.76,6.51.76,9.54,1.2,18.78,2.81,27.74,4.75l10.14-12.56A274.3,274.3,0,0,0,312.1,6.51L305,5.18c-8.37-1.48-17.07-2.6-26-3.45Z" class="cls-1"></path><path d="M144.78,234.25a41.45,41.45,0,0,0,19.82,5.23c9.61,0,15-4.51,15-11.19,0-6.21-4.12-9.86-14.59-13.62-13.5-4.87-22.14-12-22.14-23.85,0-13.38,11.19-23.58,28.95-23.58,8.88,0,15.45,1.94,19.71,4.13l-3.65,12a34.78,34.78,0,0,0-16.3-3.89c-9.5,0-13.63,5.11-13.63,9.85,0,6.33,4.75,9.25,15.69,13.5,14.24,5.35,21.17,12.52,21.17,24.33,0,13.13-10,24.69-31.14,24.69-8.64,0-17.64-2.56-22.13-5.24Z" class="cls-2"></path><path d="M208.27,169.67a130.12,130.12,0,0,1,22.87-1.7c10.93,0,19,2.31,24.19,6.69,4.87,4,8,10.45,8,18.12s-2.42,14.24-7,18.61c-6,6-15.31,8.76-25.91,8.76a42.61,42.61,0,0,1-7.3-.48v30.88H208.27Zm14.84,38.2a30,30,0,0,0,7.3.61c11.19,0,18-5.46,18-15.08,0-9.13-6.34-14-16.67-14a40.75,40.75,0,0,0-8.63.74Z" class="cls-2"></path><path d="M349,208.7c0,27.5-16.65,43.19-39.28,43.19-23.12,0-37.7-17.63-37.7-41.72,0-25.18,15.8-42.95,38.92-42.95C334.86,167.22,349,185.35,349,208.7Zm-61.18,1.23c0,16.65,8.4,30,22.75,30s22.62-13.49,22.62-30.64c0-15.46-7.65-30.17-22.62-30.17S287.79,193,287.79,209.92Z" class="cls-2"></path><path d="M361.85,169.67a142.41,142.41,0,0,1,22.63-1.7c11.8,0,19.83,1.94,25.3,6.57,4.5,3.76,7,9.49,7,16.41,0,10.6-7.18,17.76-14.84,20.56v.37c5.84,2.19,9.36,7.91,11.43,15.81,2.57,10.21,4.75,19.7,6.46,22.87H404.42c-1.23-2.44-3.17-9.12-5.48-19.34-2.31-10.72-6.21-14.11-14.72-14.35h-7.54v33.69H361.84Zm14.84,36.25h8.88c10.1,0,16.42-5.36,16.42-13.5,0-9-6.32-13.14-16.05-13.14a42.7,42.7,0,0,0-9.25.73Z" class="cls-2"></path><polygon points="447.34 181.1 423.99 181.1 423.99 168.56 485.9 168.56 485.9 181.1 462.31 181.1 462.31 250.55 447.35 250.55 447.34 181.1" class="cls-2"></polygon><path d="M158.31,123.49l-6.16,18.62h-7.89l20.13-59.26h9.23l20.21,59.26h-8.17l-6.34-18.62Zm19.43-6-5.8-17.05c-1.33-3.87-2.2-7.38-3.08-10.81h-.18c-.88,3.51-1.84,7.12-3,10.72l-5.82,17.15Z" class="cls-2"></path><path d="M202.56,83.66a73.6,73.6,0,0,1,14-1.23c7.65,0,12.55,1.32,16.26,4.31a12.44,12.44,0,0,1,4.93,10.47c0,5.71-3.78,10.72-10,13v.17c5.62,1.42,12.22,6.07,12.22,14.86a15.93,15.93,0,0,1-5,11.86c-4.12,3.79-10.81,5.54-20.49,5.54a90.43,90.43,0,0,1-11.86-.7Zm7.65,24.26h6.94c8.09,0,12.84-4.22,12.84-9.93,0-6.95-5.28-9.67-13-9.67a32.27,32.27,0,0,0-6.77.53Zm0,28.4a40,40,0,0,0,6.41.36c7.93,0,15.22-2.91,15.22-11.53,0-8.08-6.94-11.42-15.31-11.42h-6.32Z" class="cls-2"></path><path d="M249.19,132.81a27.15,27.15,0,0,0,13.71,3.87c7.82,0,12.39-4.14,12.39-10.11,0-5.54-3.16-8.71-11.16-11.78-9.68-3.44-15.65-8.44-15.65-16.8,0-9.23,7.66-16.08,19.17-16.08,6.06,0,10.46,1.4,13.09,2.89L278.63,91a23.61,23.61,0,0,0-11.25-2.81c-8.09,0-11.17,4.84-11.17,8.88,0,5.54,3.6,8.27,11.78,11.43,10,3.87,15.13,8.7,15.13,17.41,0,9.14-6.78,17.15-20.75,17.15-5.72,0-12-1.75-15.13-3.86Z" class="cls-2"></path><path d="M344.25,111.88c0,20.39-12.39,31.21-27.51,31.21-15.66,0-26.65-12.13-26.65-30.06,0-18.83,11.7-31.13,27.52-31.13C333.78,81.9,344.25,94.29,344.25,111.88Zm-46,1c0,12.66,6.86,24,18.91,24s19-11.17,19-24.62c0-11.78-6.16-24.08-18.91-24.08s-19,11.69-19,24.7Z" class="cls-2"></path><polygon points="354.21 82.87 361.87 82.87 361.87 135.71 387.19 135.71 387.19 142.11 354.21 142.11 354.21 82.87" class="cls-2"></polygon><path d="M400.23,82.87V118c0,13.27,5.88,18.9,13.78,18.9,8.79,0,14.41-5.8,14.41-18.9V82.87h7.74v34.55c0,18.2-9.57,25.67-22.41,25.67-12.14,0-21.28-6.94-21.28-25.32V82.85Z" class="cls-2"></path><polygon points="460.73 89.37 442.72 89.37 442.72 82.87 486.59 82.87 486.59 89.37 468.48 89.37 468.48 142.11 460.73 142.11 460.73 89.37" class="cls-2"></polygon><path d="M149,65.31A259.91,259.91,0,0,1,199.87,49l-6.74-17.28c-1.22.23-2.43.45-3.64.71l-6.8,1.47a268.38,268.38,0,0,0-51.42,17.17Z" class="cls-3"></path><path d="M99,100.86C109,88.77,123.24,78.1,140.71,69.27L123,55.06A164.18,164.18,0,0,0,87.7,78.67l-3.93,3.72A101.93,101.93,0,0,0,73.66,93.85Z" class="cls-3"></path><path d="M82.7,153.75a63.41,63.41,0,0,1-.4-14.89A66.32,66.32,0,0,1,93.61,108l-24.88-6.93c-6.86,11.3-10.32,23.16-10.08,35.06a60.26,60.26,0,0,0,3.63,19.2Z" class="cls-3"></path><path d="M273.43,25.85l-3.52,15.23a433.08,433.08,0,0,1,48.86,1.77l8.49-10.49q-12-2.5-24.61-4.12l-6.36-.74C288.77,26.69,281.12,26.15,273.43,25.85Z" class="cls-3"></path><path d="M328.6,43.88a415.71,415.71,0,0,1,67.81,13.46c-17.12-9.72-37.61-17.53-60.12-23Z" class="cls-3"></path><path d="M85,163.85l-.64-2-1.43.12-17.19,1.41c9.16,18,27,34.13,51.72,47C101.26,196,90,180.25,85,163.85Z" class="cls-3"></path><path d="M208.11,47.34a368.89,368.89,0,0,1,53.23-6L265,25.59c-2,0-4-.07-5.94-.07q-3.56,0-7.14.07a348.41,348.41,0,0,0-50.46,4.64Z" class="cls-3"></path></g></g></svg>